# xmcd CD database file
#
# Track frame offsets:
#	150
#	18990
#	40950
#	61700
#	80705
#	100140
#	126105
#	147600
#	170932
#	191520
#	215867
#	237972
#
# Disc length: 3470 seconds
#
# Revision: 3
# Processed by: cddbd v1.5PL3 Copyright (c) Steve Scherf et al.
# Submitted via: CDex 1.50Beta7
#
DISCID=b20d8c0c
DTITLE=Sowelu - Geofu
DYEAR=2003
DGENRE=JPop
TTITLE0=shine
TTITLE1=Fortune
TTITLE2=Rainbow (original mix)
TTITLE3=across my heart
TTITLE4=I Wanna Know
TTITLE5=beautiful dreamer (album version)
TTITLE6=Part of me
TTITLE7=CC
TTITLE8=Can't take my eyes off of You
TTITLE9=call my name
TTITLE10=my dear
TTITLE11=breath-想いの容量-
EXTD=YEAR: 2003
EXTT0=
EXTT1=
EXTT2=
EXTT3=
EXTT4=
EXTT5=
EXTT6=
EXTT7=
EXTT8=
EXTT9=
EXTT10=
EXTT11=
PLAYORDER=
